<?xml version="1.0" encoding="utf-8"?>
<!-- Generator: Adobe Illustrator 27.5.0, SVG Export Plug-In . SVG Version: 6.00 Build 0)  -->
<svg version="1.1" id="_x31_" xmlns="http://www.w3.org/2000/svg" xmlns:xlink="http://www.w3.org/1999/xlink" x="0px" y="0px"
	 viewBox="0 0 450 450" style="enable-background:new 0 0 450 450;" xml:space="preserve">
<g>
	<g id="background_1_">
		<g>
			<defs>
				
					<ellipse id="SVGID_1_" transform="matrix(0.7071 -0.7071 0.7071 0.7071 -94.5598 227.9041)" cx="227.825" cy="228.096" rx="138.101" ry="138.101"/>
			</defs>
			<use xlink:href="#SVGID_1_"  style="overflow:visible;fill:#FCD9D9;"/>
			<clipPath id="SVGID_00000124841552407789126780000007470942386023896453_">
				<use xlink:href="#SVGID_1_"  style="overflow:visible;"/>
			</clipPath>
			<path style="clip-path:url(#SVGID_00000124841552407789126780000007470942386023896453_);fill:#EA9292;" d="M355.454,160.571
				h-51.535c-1.233,0-2.233-1-2.233-2.233v-38.594c0-1.233,1-2.233,2.233-2.233h51.535c1.233,0,2.233,1,2.233,2.233v38.594
				C357.687,159.571,356.687,160.571,355.454,160.571z"/>
			<path style="clip-path:url(#SVGID_00000124841552407789126780000007470942386023896453_);fill:#EA9292;" d="M327.667,168.4
				l0.069-15.934h-12.42v8.105c0,0,5.179,0.249,8.034,2.302C326.182,164.911,327.667,168.4,327.667,168.4z"/>
			<path style="clip-path:url(#SVGID_00000124841552407789126780000007470942386023896453_);fill:#EA9292;" d="M346.149,199.691
				c0.552,1.851-4.058,9.307-5.065,10.595c-0.076,0.097-0.173,0.173-0.281,0.238c-0.195,0.282-0.39,0.487-0.552,0.595
				c-1.656,1.104-9.394,0.184-13.084-0.898c-3.68-1.082-11.05-6.288-11.05-6.288l-42.759-7.954l-0.498,4.329l-15.281-0.801
				c0,0,0.325,17.5-0.043,46.98c-0.022,1.732-0.054,3.658-0.086,5.736c-0.595,33.354-3.041,108.105-3.041,108.105l-0.292,0.054
				c1.872,1.212,3.831,3.333,7.294,8.972c3.766,6.136-3.301,12.781-11.905,3.82c-4.535-4.729-6.017-7.695-6.201-10.844l-0.13,0.021
				l-7.76-88.495l-3.799,0.996l0.314,86.764h-0.021c0.876,2.565-0.217,6.136-1.45,7.511c-1.991,2.24-3.842,3.907-10.4,7.229
				c-7.164,3.615-12.056-2.879-5.649-9.123c2.413-2.349,4.729-4.232,6.764-5.617h-0.108c0,0-11.05-73.452-13.074-100.346
				c-0.206-2.749-0.389-5.595-0.541-8.506c-0.757-14.188-1.418-29.87-1.851-40.995c-0.01-0.097-0.01-0.152-0.01-0.152
				c-0.346-8.777-0.552-14.686-0.552-14.686h-17.132l-0.292-6.818l-38.452,7.273l-0.563,0.119c0,0-3.452,0.171-6.724,2.977
				c-3.259,2.797-11.256,4.804-14.518,5.892c-0.801,0.263-2.864-0.186-2.449-1.318c0.259-0.691,1.404-1.733-0.413-0.817
				c-0.76,0.387-2.033-0.936-1.192-2.087c0.754-1.04,0.239-0.911-0.564-0.528c-1.021,0.49-2.354-1.297-1.005-2.611
				c0.594-0.568,1.228-1.404-0.088-0.804c-1.43,0.653-2.577-0.537-1.347-2.266c1.103-1.558,1.935-2.22,3.32-3.161
				c2.69-1.846,9.078-3.47,9.078-3.47s-1.874-1.506-3.443-2.414c-1.579-0.909-1.285-3.653,0.372-3.476
				c1.647,0.176,4.698,1.057,8.472,2.201c3.763,1.143,9.654,3.971,9.654,3.971l1.41,1.417l37.738-17.652l34.177-15.995l4.415-2.067
				v-8.658l-0.141-0.043l-1.028-0.368l-0.054-0.022c-1.299-0.552-3.517-1.688-6.147-3.896c-0.769-0.65-1.396-1.548-1.883-2.619
				c-0.011-0.032-0.032-0.065-0.043-0.086c-0.01-0.043-0.032-0.065-0.032-0.087c-0.011-0.022-0.011-0.033-0.011-0.033
				c-3.214-7.467-0.465-23.366,1.602-30.054c0.487-1.559,1.169-2.911,1.992-4.058c-0.964-2.522-1.894-5.996-0.845-8.095
				c1.797-3.593,6.288-2.359,6.288-2.359s-1.082-5.108,1.429-7.727c2.511-2.63,17.013-3.874,21.439,0
				c4.416,3.864,3.593,9.524,3.593,9.524s3.171-0.411,6.212,2.078c3.041,2.489,0,9.113,0,9.113s3.896,1.591,4.156,4.708
				c0.249,2.922-6.255,8.907-9.177,14.437c0.963,1.429,1.699,3.885,1.125,6.061c-0.844,1.007-1.894,1.71-2.965,2.175
				c-0.022,0.487-0.022,0.952-0.033,1.418c-0.065,3.128-0.119,5.768-2.219,7.954c-2.835,2.954-9.188,5.163-13.355,4.87l-0.141,6.201
				l6.299,3.236l34.069,17.467l41.428,21.255c0,0,0-0.011,0.011-0.011c0.227-0.26,2.965-3.377,5.53-4.524
				c2.024-0.909,6.548-2.067,9.199-2.749l4.318-9.318l10.79,5l-3.929,8.495c0.108,0.097,0.216,0.206,0.325,0.325
				C343.292,194.908,345.597,197.851,346.149,199.691z"/>
			<g style="clip-path:url(#SVGID_00000124841552407789126780000007470942386023896453_);">
				<path style="fill:#EA9292;" d="M306.864,339.068c0,9.362-7.587,16.948-16.948,16.948c-9.361,0-16.948-7.587-16.948-16.948
					c0-6.731,3.928-12.543,9.61-15.292c-0.022-0.249-0.033-0.498-0.033-0.747v-95.032c0-3.972,3.225-7.197,7.197-7.197h0.346
					c3.972,0,7.197,3.225,7.197,7.197v95.032c0,0.249-0.011,0.498-0.033,0.747C302.935,326.525,306.864,332.337,306.864,339.068z"/>
				<path style="fill:#EA9292;" d="M289.915,357.639c-10.24,0-18.571-8.331-18.571-18.57c0-6.726,3.725-12.995,9.578-16.258v-94.812
					c0-4.863,3.956-8.819,8.821-8.819h0.346c4.863,0,8.819,3.956,8.819,8.819v94.811c5.854,3.264,9.579,9.534,9.579,16.26
					C308.487,349.308,300.156,357.639,289.915,357.639z M289.742,222.424c-3.075,0-5.575,2.501-5.575,5.574v95.031
					c0,0.201,0.01,0.401,0.027,0.601l0.102,1.118l-1.01,0.49c-5.364,2.594-8.696,7.894-8.696,13.83
					c0,8.45,6.875,15.326,15.325,15.326c8.451,0,15.327-6.876,15.327-15.326c0-5.846-3.414-11.274-8.696-13.83l-1.01-0.49
					l0.102-1.118c0.018-0.2,0.026-0.4,0.026-0.601v-95.031c0-3.073-2.501-5.574-5.574-5.574H289.742z"/>
			</g>
			<g style="clip-path:url(#SVGID_00000124841552407789126780000007470942386023896453_);">
				<path style="fill:#EA9292;" d="M349.601,339.068c0,9.362-7.587,16.948-16.948,16.948c-9.362,0-16.948-7.587-16.948-16.948
					c0-6.731,3.929-12.543,9.61-15.292c-0.021-0.249-0.032-0.498-0.032-0.747v-95.032c0-3.972,3.225-7.197,7.197-7.197h0.346
					c3.972,0,7.197,3.225,7.197,7.197v95.032c0,0.249-0.011,0.498-0.032,0.747C345.672,326.525,349.601,332.337,349.601,339.068z"/>
				<path style="fill:#EA9292;" d="M332.653,357.639c-10.24,0-18.571-8.331-18.571-18.57c0-6.726,3.725-12.995,9.578-16.26v-94.811
					c0-4.863,3.956-8.819,8.819-8.819h0.347c4.865,0,8.82,3.956,8.82,8.819v94.811c5.852,3.264,9.578,9.534,9.578,16.26
					C351.224,349.308,342.893,357.639,332.653,357.639z M332.479,222.424c-3.073,0-5.573,2.501-5.573,5.574v95.031
					c0,0.205,0.01,0.408,0.027,0.612l0.093,1.11l-1.004,0.487c-5.282,2.556-8.695,7.984-8.695,13.83
					c0,8.45,6.875,15.326,15.326,15.326c8.45,0,15.325-6.876,15.325-15.326c0-5.846-3.413-11.274-8.695-13.83l-1.004-0.487
					l0.093-1.11c0.018-0.205,0.027-0.408,0.027-0.612v-95.031c0-3.073-2.501-5.574-5.575-5.574H332.479z"/>
			</g>
			<g style="clip-path:url(#SVGID_00000124841552407789126780000007470942386023896453_);">
				<path style="fill:#EA9292;" d="M392.339,339.068c0,9.362-7.586,16.948-16.948,16.948c-9.361,0-16.948-7.587-16.948-16.948
					c0-6.731,3.928-12.543,9.61-15.292c-0.022-0.249-0.033-0.498-0.033-0.747v-95.032c0-3.972,3.214-7.197,7.197-7.197h0.346
					c3.972,0,7.197,3.225,7.197,7.197v95.032c0,0.249-0.01,0.498-0.033,0.747C388.41,326.525,392.339,332.337,392.339,339.068z"/>
				<path style="fill:#EA9292;" d="M375.391,357.639c-10.24,0-18.571-8.331-18.571-18.57c0-6.726,3.725-12.995,9.578-16.26v-94.811
					c0-4.863,3.956-8.819,8.82-8.819h0.346c4.863,0,8.819,3.956,8.819,8.819v94.811c5.852,3.264,9.577,9.534,9.577,16.26
					C393.961,349.308,385.631,357.639,375.391,357.639z M375.218,222.424c-3.074,0-5.575,2.501-5.575,5.574v95.031
					c0,0.205,0.01,0.408,0.027,0.612l0.093,1.11l-1.004,0.487c-5.282,2.556-8.695,7.984-8.695,13.83
					c0,8.45,6.876,15.326,15.326,15.326c8.45,0,15.325-6.876,15.325-15.326c0-5.846-3.413-11.274-8.695-13.83l-1.004-0.487
					l0.094-1.11c0.017-0.205,0.027-0.408,0.027-0.612v-95.031c0-3.073-2.501-5.574-5.574-5.574H375.218z"/>
			</g>
			<path style="clip-path:url(#SVGID_00000124841552407789126780000007470942386023896453_);fill:#EA9292;" d="M165.327,356.485
				H80.528c-1.204,0-2.18-0.976-2.18-2.18V230.454c0-1.204,0.976-2.179,2.179-2.179h84.799c1.204,0,2.18,0.976,2.18,2.18v123.852
				C167.507,355.51,166.531,356.485,165.327,356.485z"/>
			<path style="clip-path:url(#SVGID_00000124841552407789126780000007470942386023896453_);fill:#EA9292;" d="M175.336,226.206
				l-15.934-0.069v12.42h8.105c0,0,0.249-5.179,2.303-8.033C171.847,227.691,175.336,226.206,175.336,226.206z"/>
			<path style="clip-path:url(#SVGID_00000124841552407789126780000007470942386023896453_);fill:#EA9292;" d="M180.962,148.283
				H79.952c-1.204,0-2.18-0.976-2.18-2.18V88.919c0-1.204,0.976-2.179,2.18-2.179h101.01c1.204,0,2.18,0.976,2.18,2.179v57.184
				C183.142,147.307,182.166,148.283,180.962,148.283z"/>
		</g>
	</g>
	<g id="window_3_1_">
		<path style="fill:#FCF9F9;" d="M167.367,221.225c-0.014,0-0.027-0.004-0.041-0.004H92.25c-3.988,0-7.221,3.233-7.221,7.221
			v114.286c0,3.988,3.233,7.221,7.221,7.221h75.076c3.988,0,7.221-3.233,7.221-7.221V233.691c0,0,0.249-5.2,2.312-8.066
			c2.046-2.844,5.548-4.335,5.548-4.335L167.367,221.225z"/>
		<g>
			<path style="fill:#FCF9F9;" d="M110.792,327.571c-5.974,0-10.818-4.843-10.818-10.818v-50.681
				c0-5.975,4.844-10.818,10.818-10.818c5.975,0,10.818,4.844,10.818,10.818v50.681C121.61,322.727,116.767,327.571,110.792,327.571
				z"/>
			<path style="fill:#939AA0;" d="M110.793,328.807c-6.648,0-12.056-5.407-12.056-12.054v-50.681
				c0-6.648,5.408-12.056,12.056-12.056c6.647,0,12.054,5.407,12.054,12.056v50.681C122.847,323.4,117.44,328.807,110.793,328.807z
				 M110.793,256.491c-5.284,0-9.581,4.297-9.581,9.581v50.681c0,5.282,4.297,9.579,9.581,9.579c5.282,0,9.579-4.297,9.579-9.579
				v-50.681C120.372,260.788,116.075,256.491,110.793,256.491z"/>
		</g>
		<g>
			<path style="fill:#FF7C76;" d="M121.609,291.412v26.428c0,5.376-4.846,9.725-10.812,9.725c-5.966,0-10.823-4.349-10.823-9.725
				v-26.428H121.609z"/>
			<path style="fill:#DD4231;" d="M110.798,328.803c-6.655,0-12.061-4.918-12.061-10.962v-26.429c0-0.683,0.554-1.238,1.238-1.238
				h21.635c0.683,0,1.238,0.554,1.238,1.238v26.429C122.847,323.885,117.441,328.803,110.798,328.803z M101.212,292.649v25.192
				c0,4.679,4.296,8.487,9.575,8.487c5.29,0,9.586-3.807,9.586-8.487v-25.192H101.212z"/>
		</g>
		<g>
			<path style="fill:#FCF9F9;" d="M94.833,338.992h69.705H94.833z"/>
			<rect x="94.833" y="337.754" style="fill:#939AA0;" width="69.706" height="2.475"/>
		</g>
		<g>
			<path style="fill:#FCF9F9;" d="M160.05,313.264c0,7.875-6.384,14.259-14.259,14.259c-7.875,0-14.259-6.384-14.259-14.259
				c0-7.875,6.384-14.259,14.259-14.259C153.666,299.005,160.05,305.388,160.05,313.264z"/>
			<path style="fill:#939AA0;" d="M145.791,328.761c-8.545,0-15.496-6.953-15.496-15.498c0-8.545,6.951-15.496,15.496-15.496
				c8.545,0,15.496,6.951,15.496,15.496C161.287,321.808,154.336,328.761,145.791,328.761z M145.791,300.242
				c-7.18,0-13.021,5.841-13.021,13.021s5.841,13.023,13.021,13.023c7.18,0,13.021-5.843,13.021-13.023
				S152.971,300.242,145.791,300.242z"/>
		</g>
		<g>
			<path style="fill:#FCF9F9;" d="M160.054,313.264c0,7.867-6.389,14.256-14.267,14.256c-7.867,0-14.256-6.389-14.256-14.256
				H160.054z"/>
			<path style="fill:#939AA0;" d="M145.786,328.758c-8.543,0-15.493-6.951-15.493-15.495v-1.237h30.999v1.237
				C161.292,321.806,154.336,328.758,145.786,328.758z M132.826,314.5c0.625,6.602,6.199,11.782,12.96,11.782
				c6.768,0,12.348-5.18,12.973-11.782H132.826z"/>
		</g>
		<g>
			<path style="fill:#FCF9F9;" d="M160.054,277.158c0,7.867-6.389,14.256-14.267,14.256c-7.867,0-14.256-6.389-14.256-14.256
				H160.054z"/>
			<path style="fill:#939AA0;" d="M145.786,292.651c-8.543,0-15.493-6.95-15.493-15.493c0-0.683,0.554-1.237,1.238-1.237h28.524
				c0.683,0,1.238,0.554,1.238,1.237C161.292,285.701,154.336,292.651,145.786,292.651z M132.826,278.396
				c0.625,6.6,6.199,11.78,12.96,11.78c6.768,0,12.346-5.18,12.973-11.78H132.826z"/>
		</g>
		<rect x="94.833" y="230.714" style="fill:#939AA0;" width="69.705" height="6.519"/>
		<g>
			<path style="fill:#FCF9F9;" d="M94.833,244.808h69.705H94.833z"/>
			<rect x="94.833" y="243.571" style="fill:#939AA0;" width="69.706" height="2.475"/>
		</g>
		<g>
			<path style="fill:#939AA0;" d="M167.325,351.187H92.25c-4.665,0-8.46-3.795-8.46-8.458V228.443c0-4.665,3.795-8.46,8.46-8.46
				h51.78c0.683,0,1.238,0.554,1.238,1.238c0,0.683-0.554,1.238-1.238,1.238H92.25c-3.3,0-5.985,2.685-5.985,5.985v114.287
				c0,3.298,2.685,5.983,5.985,5.983h75.075c3.3,0,5.985-2.685,5.985-5.983v-45.285c0-0.683,0.554-1.237,1.237-1.237
				c0.683,0,1.238,0.554,1.238,1.237v45.285C175.784,347.393,171.989,351.187,167.325,351.187z"/>
		</g>
		<g>
			<path style="fill:#939AA0;" d="M174.547,288.993c-0.683,0-1.237-0.554-1.237-1.237v-6.209c0-0.683,0.554-1.237,1.237-1.237
				c0.683,0,1.238,0.554,1.238,1.237v6.209C175.784,288.439,175.23,288.993,174.547,288.993z"/>
		</g>
	</g>
	<g id="window_2_1_">
		<path style="fill:#FCF9F9;" d="M342.793,112.69h-41.431c-4.086,0-7.398,3.312-7.398,7.398v28.438c0,4.085,3.312,7.397,7.398,7.397
			h6.287c0,0,5.2,0.25,8.066,2.312c2.844,2.046,4.335,5.548,4.335,5.548l0.035-7.861h22.71c4.085,0,7.397-3.312,7.397-7.397v-28.438
			C350.19,116.002,346.878,112.69,342.793,112.69z"/>
		<g>
			<path style="fill:#939AA0;" d="M342.793,157.161h-5.733c-0.683,0-1.238-0.554-1.238-1.238c0-0.683,0.554-1.237,1.238-1.237h5.733
				c3.395,0,6.159-2.763,6.159-6.16v-28.438c0-3.397-2.764-6.16-6.159-6.16h-31.712c-0.683,0-1.237-0.554-1.237-1.238
				c0-0.683,0.554-1.237,1.237-1.237h31.712c4.76,0,8.633,3.873,8.633,8.635v28.438
				C351.427,153.287,347.553,157.161,342.793,157.161z"/>
		</g>
		<g>
			<polygon style="fill:#81F2EF;" points="339.523,122.028 324.44,140.533 319.605,146.564 319.573,146.586 319.551,146.564 
				314.715,140.533 304.631,127.982 314.378,127.982 319.583,134.47 329.733,122.028 			"/>
			<path style="fill:#2D918A;" d="M319.568,147.81c-0.306,0-0.608-0.105-0.838-0.317l-15.064-18.735
				c-0.298-0.371-0.356-0.88-0.152-1.31c0.206-0.429,0.64-0.703,1.117-0.703h9.747c0.376,0,0.73,0.171,0.965,0.462l4.249,5.295
				l9.181-11.257c0.235-0.288,0.586-0.456,0.959-0.456h9.79c0.477,0,0.912,0.276,1.118,0.706c0.205,0.432,0.144,0.943-0.159,1.313
				l-19.911,24.529c-0.082,0.103-0.181,0.192-0.29,0.264C320.065,147.741,319.816,147.81,319.568,147.81z M307.212,129.22
				l12.366,15.399l3.898-4.86l13.442-16.495h-6.597l-9.778,11.987c-0.235,0.288-0.587,0.456-0.959,0.456c-0.002,0-0.003,0-0.005,0
				c-0.374-0.002-0.727-0.173-0.96-0.462l-4.834-6.025H307.212z"/>
		</g>
	</g>
	<g id="window_1_1_">
		<path style="fill:#FCF9F9;" d="M186.103,139.297H84.685c-1.209,0-2.188-0.98-2.188-2.188V79.694c0-1.209,0.98-2.188,2.188-2.188
			h101.418c1.209,0,2.188,0.98,2.188,2.188v57.414C188.291,138.317,187.311,139.297,186.103,139.297z"/>
		<g>
			<path style="fill:#FCF9F9;" d="M142.43,100.812h35.234H142.43z"/>
			<rect x="142.431" y="99.575" style="fill:#939AA0;" width="35.233" height="2.475"/>
		</g>
		<g>
			<path style="fill:#FCF9F9;" d="M142.43,119.261h35.234H142.43z"/>
			<rect x="142.431" y="118.023" style="fill:#939AA0;" width="35.233" height="2.475"/>
		</g>
		<g>
			<path style="fill:#FCF9F9;" d="M142.43,110.036h35.234H142.43z"/>
			<rect x="142.431" y="108.798" style="fill:#939AA0;" width="35.233" height="2.475"/>
		</g>
		<g>
			<path style="fill:#FCF9F9;" d="M142.43,128.429h35.234H142.43z"/>
			<rect x="142.431" y="127.191" style="fill:#939AA0;" width="35.233" height="2.475"/>
		</g>
		<rect x="134.616" y="87.079" style="fill:#939AA0;" width="43.049" height="6.519"/>
		<g>
			<polygon style="fill:#81F2EF;" points="132.837,100.833 132.837,116.102 120.614,116.102 120.614,128.429 105.359,128.429 
				105.359,116.102 93.123,116.102 93.123,100.833 105.359,100.833 105.359,88.715 120.614,88.715 120.614,100.833 			"/>
			<path style="fill:#2D918A;" d="M120.614,129.667h-15.255c-0.683,0-1.237-0.554-1.237-1.238v-11.091H93.123
				c-0.683,0-1.238-0.554-1.238-1.238v-15.268c0-0.683,0.554-1.237,1.238-1.237h10.999V88.715c0-0.683,0.554-1.237,1.237-1.237
				h15.255c0.683,0,1.238,0.554,1.238,1.237v10.881h10.986c0.683,0,1.238,0.554,1.238,1.237v15.268c0,0.683-0.554,1.238-1.238,1.238
				h-10.986v11.091C121.851,129.112,121.297,129.667,120.614,129.667z M106.597,127.191h12.78v-11.091
				c0-0.683,0.554-1.237,1.238-1.237H131.6v-12.793h-10.986c-0.683,0-1.238-0.554-1.238-1.238V89.952h-12.78v10.881
				c0,0.683-0.554,1.238-1.238,1.238H94.36v12.793h10.999c0.683,0,1.238,0.554,1.238,1.237V127.191z"/>
		</g>
		<g>
			<path style="fill:#939AA0;" d="M82.497,125.232c-0.683,0-1.237-0.554-1.237-1.238V84.727c0-4.663,3.794-8.458,8.459-8.458h21.074
				c0.683,0,1.237,0.554,1.237,1.238c0,0.683-0.554,1.237-1.237,1.237H89.718c-3.3,0-5.984,2.685-5.984,5.983v39.268
				C83.734,124.678,83.18,125.232,82.497,125.232z"/>
		</g>
		<g>
			<path style="fill:#939AA0;" d="M173.667,78.744h-4.9c-0.683,0-1.237-0.554-1.237-1.237c0-0.684,0.554-1.238,1.237-1.238h4.9
				c0.683,0,1.238,0.554,1.238,1.238C174.904,78.189,174.35,78.744,173.667,78.744z"/>
		</g>
		<g>
			<path style="fill:#939AA0;" d="M181.069,140.535h-35.024c-0.683,0-1.238-0.554-1.238-1.237c0-0.683,0.554-1.238,1.238-1.238
				h35.024c3.3,0,5.985-2.685,5.985-5.985V84.727c0-3.298-2.685-5.983-5.985-5.983c-0.683,0-1.238-0.554-1.238-1.237
				c0-0.684,0.554-1.238,1.238-1.238c4.665,0,8.46,3.795,8.46,8.458v47.349C189.529,136.74,185.734,140.535,181.069,140.535z"/>
		</g>
	</g>
	<g>
		<g>
			<path style="fill:#FCF9F9;" d="M377.454,313.558v6.982c0,0.25-0.011,0.5-0.033,0.75c5.705,2.76,9.649,8.595,9.649,15.354
				c0,9.399-7.617,17.016-17.017,17.016c-9.399,0-17.016-7.617-17.016-17.016c0-6.759,3.944-12.594,9.649-15.354
				c-0.022-0.25-0.033-0.5-0.033-0.75v-95.415c0-3.988,3.227-7.226,7.226-7.226h0.348c3.988,0,7.226,3.238,7.226,7.226v6.039
				V313.558z"/>
			<path style="fill:#939AA0;" d="M370.054,354.898c-10.064,0-18.253-8.189-18.253-18.255c0-6.688,3.748-12.918,9.617-16.094
				c0-0.003,0-0.007,0-0.01v-95.415c0-4.668,3.796-8.464,8.462-8.464h0.348c4.668,0,8.465,3.796,8.465,8.464v6.039
				c0,0.683-0.554,1.237-1.238,1.237c-0.684,0-1.237-0.554-1.237-1.237v-6.039c0-3.303-2.686-5.989-5.99-5.989h-0.348
				c-3.301,0-5.987,2.686-5.987,5.989v95.415c0,0.212,0.008,0.425,0.027,0.638l0.077,0.852l-0.77,0.372
				c-5.438,2.632-8.951,8.221-8.951,14.241c0,8.701,7.078,15.78,15.778,15.78c8.701,0,15.78-7.078,15.78-15.78
				c0-6.02-3.514-11.609-8.951-14.241l-0.772-0.372l0.077-0.852c0.019-0.212,0.029-0.425,0.029-0.638v-6.982
				c0-0.683,0.554-1.238,1.237-1.238c0.683,0,1.238,0.554,1.238,1.238v6.982c0,0.003,0,0.006,0,0.01
				c5.868,3.178,9.616,9.405,9.616,16.094C388.309,346.709,380.12,354.898,370.054,354.898z"/>
		</g>
		<g>
			<path style="fill:#FCF9F9;" d="M377.454,266.948v30.16V266.948z"/>
			<path style="fill:#939AA0;" d="M377.455,298.345c-0.684,0-1.237-0.554-1.237-1.238v-30.159c0-0.683,0.554-1.237,1.237-1.237
				c0.683,0,1.238,0.554,1.238,1.237v30.159C378.692,297.791,378.138,298.345,377.455,298.345z"/>
		</g>
		<g>
			<path style="fill:#FCF9F9;" d="M377.454,238.817v5.126V238.817z"/>
			<path style="fill:#939AA0;" d="M377.455,245.179c-0.684,0-1.237-0.554-1.237-1.238v-5.126c0-0.683,0.554-1.238,1.237-1.238
				c0.683,0,1.238,0.554,1.238,1.238v5.126C378.692,244.625,378.138,245.179,377.455,245.179z"/>
		</g>
		<g>
			<path style="fill:#BCE4ED;" d="M377.454,310.188v10.352c0,0.25-0.011,0.5-0.033,0.75c5.705,2.76,9.649,8.595,9.649,15.354
				c0,9.399-7.617,17.016-17.017,17.016c-9.399,0-17.016-7.617-17.016-17.016c0-6.759,3.944-12.594,9.649-15.354
				c-0.022-0.25-0.033-0.5-0.033-0.75v-36.793h14.8v16.752V310.188z"/>
			<path style="fill:#6A8F9B;" d="M370.054,354.898c-10.064,0-18.253-8.189-18.253-18.255c0-6.688,3.748-12.918,9.617-16.094
				c0-0.003,0-0.007,0-0.01v-36.793c0-0.683,0.554-1.237,1.237-1.237h14.8c0.683,0,1.238,0.554,1.238,1.237V300.5
				c0,0.683-0.554,1.237-1.238,1.237c-0.684,0-1.237-0.554-1.237-1.237v-15.516h-12.325v35.556c0,0.212,0.008,0.425,0.027,0.638
				c0.047,0.512-0.23,1.001-0.693,1.225c-5.438,2.632-8.951,8.221-8.951,14.241c0,8.701,7.078,15.78,15.778,15.78
				c8.701,0,15.78-7.078,15.78-15.78c0-6.02-3.514-11.609-8.951-14.241c-0.464-0.224-0.741-0.712-0.695-1.225
				c0.019-0.212,0.029-0.425,0.029-0.638v-10.351c0-0.683,0.554-1.237,1.237-1.237c0.683,0,1.238,0.554,1.238,1.237v10.351
				c0,0.003,0,0.006,0,0.01c5.868,3.178,9.616,9.405,9.616,16.094C388.309,346.709,380.12,354.898,370.054,354.898z"/>
		</g>
		<circle style="fill:#FCF9F9;" cx="370.054" cy="336.232" r="7.907"/>
	</g>
	<g>
		<g>
			<path style="fill:#FCF9F9;" d="M319.744,265.147v-40.022c0-3.988,3.238-7.226,7.226-7.226h0.348c3.988,0,7.226,3.238,7.226,7.226
				v95.415c0,0.25-0.011,0.5-0.033,0.75c5.705,2.76,9.649,8.595,9.649,15.354c0,9.399-7.617,17.016-17.016,17.016
				c-9.399,0-17.016-7.617-17.016-17.016c0-6.759,3.945-12.594,9.649-15.354c-0.022-0.25-0.033-0.5-0.033-0.75v-36.793V265.147z"/>
			<path style="fill:#939AA0;" d="M327.144,354.898c-10.066,0-18.255-8.189-18.255-18.255c0-6.688,3.748-12.916,9.616-16.094
				c0-0.003,0-0.007,0-0.01v-36.793h2.475v36.793c0,0.212,0.01,0.425,0.029,0.638l0.077,0.852l-0.772,0.372
				c-5.436,2.632-8.951,8.221-8.951,14.241c0,8.701,7.078,15.78,15.78,15.78c8.7,0,15.778-7.078,15.778-15.78
				c0-6.02-3.513-11.609-8.951-14.241l-0.764-0.369l0.071-0.847c0.018-0.216,0.027-0.43,0.027-0.646v-95.415
				c0-3.303-2.685-5.989-5.987-5.989h-0.348c-3.303,0-5.99,2.686-5.99,5.989v40.022h-2.475v-40.022c0-4.668,3.796-8.464,8.464-8.464
				h0.348c4.666,0,8.462,3.796,8.462,8.464v95.415c0,0.003,0,0.006,0,0.01c5.869,3.176,9.617,9.405,9.617,16.094
				C345.398,346.709,337.209,354.898,327.144,354.898z"/>
		</g>
		<g>
			<path style="fill:#FF7769;" d="M319.744,269.079v-28.523h14.8v79.984c0,0.25-0.011,0.5-0.033,0.75
				c5.705,2.76,9.649,8.595,9.649,15.354c0,9.399-7.617,17.016-17.016,17.016c-9.399,0-17.016-7.617-17.016-17.016
				c0-6.759,3.945-12.594,9.649-15.354c-0.022-0.25-0.033-0.5-0.033-0.75v-39.525V269.079z"/>
			<path style="fill:#DD4231;" d="M327.144,354.898c-10.066,0-18.255-8.189-18.255-18.255c0-6.688,3.748-12.916,9.616-16.094
				c0-0.003,0-0.007,0-0.01v-39.524c0-0.683,0.554-1.238,1.237-1.238s1.237,0.554,1.237,1.238v39.524
				c0,0.212,0.01,0.425,0.029,0.638c0.047,0.512-0.23,1.001-0.695,1.225c-5.436,2.632-8.951,8.221-8.951,14.241
				c0,8.701,7.078,15.78,15.78,15.78c8.7,0,15.778-7.078,15.778-15.78c0-6.02-3.513-11.609-8.951-14.241
				c-0.461-0.222-0.736-0.706-0.693-1.216c0.018-0.216,0.027-0.43,0.027-0.646v-78.746h-12.325v27.284
				c0,0.683-0.554,1.237-1.237,1.237s-1.237-0.554-1.237-1.237v-28.522c0-0.683,0.554-1.238,1.237-1.238h14.8
				c0.684,0,1.237,0.554,1.237,1.238v79.983c0,0.003,0,0.006,0,0.01c5.869,3.176,9.617,9.405,9.617,16.094
				C345.398,346.709,337.209,354.898,327.144,354.898z"/>
		</g>
		<path style="fill:#FCF9F9;" d="M337.565,338.899c-0.556,1.278-1.472,2.302-2.594,2.984l-0.458,0.263l-7.363,4.213l-7.372-4.213
			l-0.468-0.263c-1.111-0.682-2.028-1.706-2.594-2.984c-1.443-3.345,0.088-7.226,3.423-8.669c2.438-1.053,5.149-0.536,7.002,1.121
			c1.862-1.658,4.573-2.175,7.002-1.121C337.488,331.673,339.019,335.554,337.565,338.899z"/>
	</g>
	<g>
		<g>
			<path style="fill:#FCF9F9;" d="M276.834,229.479v-4.354c0-3.988,3.238-7.226,7.226-7.226h0.348c3.988,0,7.226,3.238,7.226,7.226
				v95.415c0,0.25-0.011,0.5-0.033,0.75c5.705,2.76,9.649,8.595,9.649,15.354c0,9.399-7.617,17.016-17.016,17.016
				c-9.399,0-17.016-7.617-17.016-17.016c0-6.759,3.944-12.594,9.649-15.354c-0.022-0.25-0.033-0.5-0.033-0.75v-66.313V229.479z"/>
			<path style="fill:#939AA0;" d="M284.233,354.898c-10.064,0-18.253-8.189-18.253-18.255c0-6.688,3.748-12.918,9.616-16.094
				c0-0.003,0-0.007,0-0.01v-66.313c0-0.683,0.554-1.238,1.237-1.238c0.683,0,1.238,0.554,1.238,1.238v66.313
				c0,0.216,0.01,0.43,0.027,0.646c0.043,0.51-0.232,0.994-0.693,1.216c-5.438,2.632-8.951,8.221-8.951,14.241
				c0,8.701,7.078,15.78,15.778,15.78c8.702,0,15.78-7.078,15.78-15.78c0-6.02-3.514-11.609-8.951-14.241
				c-0.464-0.224-0.741-0.712-0.695-1.225c0.02-0.212,0.029-0.425,0.029-0.638v-95.415c0-3.303-2.686-5.989-5.99-5.989h-0.348
				c-3.302,0-5.988,2.686-5.988,5.989v4.354c0,0.683-0.554,1.237-1.238,1.237c-0.683,0-1.237-0.554-1.237-1.237v-4.354
				c0-4.668,3.796-8.464,8.463-8.464h0.348c4.668,0,8.465,3.796,8.465,8.464v95.415c0,0.003,0,0.006,0,0.01
				c5.868,3.178,9.616,9.405,9.616,16.094C302.488,346.709,294.299,354.898,284.233,354.898z"/>
		</g>
		<g>
			<path style="fill:#81F2EF;" d="M301.25,336.643c0,9.399-7.617,17.016-17.016,17.016c-9.399,0-17.016-7.617-17.016-17.016
				c0-3.506,1.061-6.764,2.879-9.473c1.687-2.513,4.024-4.553,6.77-5.881c-0.022-0.25-0.033-0.5-0.033-0.75v-32.363v-20.151h14.799
				v52.514c0,0.25-0.011,0.5-0.033,0.75C297.305,324.05,301.25,329.885,301.25,336.643z"/>
			<path style="fill:#2D918A;" d="M284.233,354.898c-10.064,0-18.253-8.189-18.253-18.255c0-3.637,1.068-7.151,3.089-10.162
				c1.664-2.478,3.911-4.517,6.527-5.931c0-0.003,0-0.007,0-0.01v-52.515c0-0.683,0.554-1.237,1.237-1.237h14.801
				c0.683,0,1.238,0.554,1.238,1.237v52.515c0,0.003,0,0.006,0,0.01c5.868,3.178,9.616,9.405,9.616,16.094
				C302.488,346.709,294.299,354.898,284.233,354.898z M278.071,269.262v51.277c0,0.216,0.01,0.43,0.027,0.646
				c0.043,0.509-0.232,0.994-0.693,1.216c-2.536,1.228-4.708,3.115-6.281,5.458c-1.747,2.602-2.67,5.64-2.67,8.783
				c0,8.701,7.078,15.78,15.778,15.78c8.702,0,15.78-7.078,15.78-15.78c0-6.02-3.514-11.609-8.951-14.241
				c-0.464-0.224-0.741-0.712-0.695-1.225c0.02-0.212,0.029-0.425,0.029-0.638v-51.277H278.071z"/>
		</g>
		<path style="fill:#FCF9F9;" d="M291.576,339.016c0,4.057-3.286,7.343-7.343,7.343c-4.057,0-7.343-3.286-7.343-7.343
			c0-1.56,0.486-3.011,1.322-4.204l0.358-0.477l5.663-6.01l5.663,6.01l0.358,0.477C291.09,336.005,291.576,337.456,291.576,339.016z
			"/>
	</g>
	<g id="human">
		<path id="hair_2" style="fill:#773128;" d="M255.822,107.353c0.294,3.466-8.878,11.236-10.41,17.473
			c-1.521,6.248,0.554,11.094-2.912,14.702c-3.466,3.608-12.159,6.118-15.767,4.314c-3.607-1.804-11.974-40.65-11.974-40.65
			s-0.087-0.163-0.239-0.467c-0.521-1.086-1.804-3.89-2.26-6.574c-0.043-0.239-0.076-0.478-0.108-0.717
			c-0.152-1.293-0.087-2.532,0.391-3.477c1.804-3.607,6.314-2.369,6.314-2.369s-0.011-0.044-0.022-0.109c0,0,0-0.011,0-0.022
			c-0.065-0.348-0.228-1.347-0.217-2.564c0.011-0.728,0.087-1.532,0.272-2.326c0.011-0.054,0.022-0.109,0.033-0.163
			c0.25-0.945,0.663-1.858,1.358-2.575c2.521-2.641,17.092-3.89,21.526,0c4.444,3.879,3.607,9.573,3.607,9.573
			s3.194-0.424,6.248,2.075c1.076,0.88,1.391,2.271,1.347,3.716c-0.076,2.651-1.347,5.444-1.347,5.444
			S255.562,104.223,255.822,107.353z"/>
		<path style="fill:#F9AA8F;" d="M334.377,206.257c-1.662,1.109-9.432,0.185-13.137-0.902c-3.694-1.086-11.094-6.313-11.094-6.313
			l-48.365-8.997l-2.314-0.435l-12.942-4.629l-45.866-3.51l-58.633,11.095c0,0-2.956,2.032-5.922,5.183
			c-2.956,3.14-10.72,5.998-13.862,7.433c-0.769,0.351-2.876,0.126-2.58-1.053c0.18-0.717,1.214-1.873-0.509-0.763
			c-0.717,0.462-2.127-0.717-1.41-1.965c0.642-1.119,0.145-0.929-0.613-0.462c-0.97,0.598-2.497-1.04-1.283-2.497
			c0.529-0.635,1.075-1.537-0.174-0.798c-1.358,0.805-2.636-0.263-1.595-2.116c0.942-1.676,1.7-2.427,2.977-3.516
			c2.488-2.12,8.693-4.433,8.693-4.433s-2.032-1.304-3.694-2.043c-1.673-0.739-1.673-3.51,0-3.51c1.662,0,4.803,0.554,8.693,1.293
			c3.879,0.739,10.171,3.51,10.171,3.51l78.236-36.619v-8.693l-0.141-0.044c-0.185-0.054-0.533-0.163-1.032-0.369l-0.054-0.022
			c-1.304-0.554-3.532-1.695-6.172-3.912c-0.826-0.695-1.478-1.663-1.988-2.836c-3.227-7.498-0.456-23.46,1.619-30.175
			c2.401-7.769,9.703-10.171,15.538-9.617c6.205,0.587,8.856,1.456,12.735,6.074c3.88,4.629,1.782,19.081,1.782,19.081
			s2.684-0.065,4.347,1.228c1.456,1.13,3.042,5.074,1.576,8.03c-0.207,0.435-0.489,0.837-0.837,1.217
			c-2.771,2.956-6.846,2.097-6.846,2.097s-0.782,4.694-3.14,6.704c-3.292,2.804-7.4,3.282-7.4,3.282l-0.185,8.389l5.15,2.641
			l76.976,39.488c0,0,4.803-2.608,9.052-3.347c4.26-0.739,17.016,1.663,18.69,3.141C340.484,194.044,336.04,205.149,334.377,206.257
			z"/>
		<g>
			
				<rect x="324.594" y="177.497" transform="matrix(0.9074 0.4202 -0.4202 0.9074 110.2631 -121.3623)" style="fill:#FCF9F9;" width="11.934" height="24.124"/>
			<path style="fill:#6A8F9B;" d="M330.907,204.166c-0.163,0-0.329-0.034-0.485-0.108l-10.83-5.014
				c-0.279-0.127-0.493-0.363-0.6-0.649c-0.105-0.288-0.092-0.606,0.037-0.883l10.139-21.892c0.127-0.279,0.362-0.493,0.649-0.599
				c0.29-0.105,0.607-0.093,0.883,0.037l10.828,5.016c0.578,0.268,0.832,0.954,0.563,1.533l-10.137,21.89
				C331.759,203.918,331.342,204.166,330.907,204.166z M321.611,197.434l8.733,4.043l9.165-19.794l-8.732-4.044L321.611,197.434z"/>
		</g>
		<path style="fill:#F9AA8F;" d="M311.08,192.772c0,0,2.862-3.398,5.565-4.553c4.254-1.817,6.547-1.138,10.606-1.801
			c3.467-0.566,5.178,2.286,0.323,3.14c-4.369,0.768-5.919,3.426-8.155,5.945C317.161,198.046,311.08,192.772,311.08,192.772z"/>
		<path style="fill:#F9AA8F;" d="M337.429,189.978c-2.127-2.312-3.376-1.059-3.237,0.49c0.069,0.77-1.144-0.213-1.977,0.527
			c-0.833,0.74-0.381,2.393-0.381,2.393s-0.879-0.358-1.526,0.104c-0.647,0.462-0.925,3.051,0,3.791
			c0.925,0.74-0.761-0.533-1.004,0.434c-0.208,0.827-0.185,1.5,1.797,3.862c1.981,2.362-1.914,3.842-1.914,3.842
			s5.004,1.295,6.021,0c1.017-1.295,5.641-8.785,5.086-10.635C339.741,192.937,337.429,189.978,337.429,189.978z"/>
		<polygon style="fill:#D87360;" points="310.146,199.042 261.781,190.045 261.781,178.234 269.007,175.604 270.941,188.219 		"/>
		<polygon style="fill:#CC6148;" points="142.025,192.566 184.008,179.343 184.008,184.622 		"/>
		<path style="fill:#FCF9F9;" d="M269.485,171.431l-1.989,17.201l-0.782,6.77l-15.343-0.804c0,0,0.326,17.57-0.043,47.17
			c-0.022,1.739-0.055,3.673-0.087,5.759c-0.065,0.022-0.173,0.043-0.326,0.087c-1.391,0.402-3.26,0.848-5.618,1.304
			c-0.315,0.055-0.63,0.12-0.956,0.174c-0.043,0.011-0.076,0.022-0.108,0.022c-4.053,0.706-9.432,1.358-16.299,1.652
			c-2.369,0.098-4.911,0.152-7.65,0.152c-2.706,0-5.031-0.055-7.041-0.163c-6.291-0.337-9.54-1.217-12.202-2.684
			c-0.761-14.245-1.424-29.99-1.858-41.161c-0.011-0.098-0.011-0.152-0.011-0.152c-0.348-8.812-0.554-14.745-0.554-14.745h-17.201
			l-1.01-23.666l34.304-16.104c0,0,2.619,8.943,8.508,9.138c8.323,0.272,12.235-7.813,12.235-7.813L269.485,171.431z"/>
		<path style="fill:#1E5259;" d="M208.031,363.004c-6.443,6.262-1.529,12.789,5.663,9.155c6.589-3.329,8.449-5.005,10.451-7.257
			c2.002-2.252,3.677-10.368-3.042-10.395C218.85,354.497,213.717,357.476,208.031,363.004z"/>
		<path style="fill:#1E5259;" d="M243.264,368.968c8.637,8.996,15.733,2.327,11.953-3.838c-6.011-9.803-7.527-9.016-11.802-11.219
			c-4.055-2.089-5.594-2.581-5.758-1.69C236.518,358.422,236.143,361.552,243.264,368.968z"/>
		<path style="fill:#6A8F9B;" d="M251.24,247.527c-0.598,33.489-3.053,108.542-3.053,108.542l-11.279,2.032l-7.791-88.853l-3.814,1
			l0.315,87.114h-10.91c0,0-11.094-73.748-13.126-100.751c-0.207-2.76-0.391-5.618-0.543-8.541c1.423,0.782,3.031,1.402,5.172,1.858
			c0,0,0.087,0.022,0.25,0.054c0.272,0.055,0.565,0.109,0.869,0.174c0.021,0,0.055,0,0.076,0.011c3.021,0.5,7.041,0.75,12.876,0.75
			c2.695,0,5.205-0.055,7.552-0.152C239.951,250.265,247.448,248.624,251.24,247.527z"/>
		<path style="fill:#773128;" d="M216.915,116.178c-0.21,1.259-0.87,2.199-1.475,2.098c-0.604-0.101-0.925-1.203-0.715-2.463
			c0.21-1.26,0.87-2.199,1.475-2.098C216.805,113.816,217.125,114.918,216.915,116.178z"/>
		<path style="fill:#773128;" d="M231.25,116.178c-0.21,1.259-0.87,2.199-1.474,2.098c-0.605-0.101-0.925-1.203-0.715-2.463
			c0.21-1.26,0.87-2.199,1.475-2.098C231.139,113.816,231.459,114.918,231.25,116.178z"/>
		<path style="fill:#773128;" d="M213.911,108.637c0,0,1.824-0.963,3.206-1.092c1.383-0.129,3.337-0.083,3.337-0.083
			s0.585-1.392-0.034-1.794c-0.618-0.402-3.58-0.046-4.668,0.672C214.664,107.057,213.911,108.637,213.911,108.637z"/>
		<path style="fill:#773128;" d="M229.856,105.95c-1.07,0.179-1.104,2.188-1.104,2.188s2.756,0.005,4.159,0.788
			c1.403,0.783,2.643,1.965,2.643,1.965s-1.102-3.23-2.457-4.084C231.827,106.007,230.657,105.816,229.856,105.95z"/>
		<path style="fill:#FCF9F9;" d="M218.503,123.995h7.121c0,0-1.341,3.699-2.682,3.93
			C221.601,128.156,218.503,123.995,218.503,123.995z"/>
		<path style="fill:#CC6148;" d="M221.46,120.48c-0.095,0-0.19-0.024-0.277-0.076c-1.211-0.715-1.655-1.684-1.44-3.136
			c0.156-1.047,0.949-1.631,1.648-2.146c0.327-0.24,0.635-0.469,0.867-0.727c0.472-0.527,0.648-2.099,0.648-2.966
			c0-0.3,0.243-0.543,0.543-0.543c0.3,0,0.543,0.243,0.543,0.543c0,0.272-0.026,2.688-0.925,3.691
			c-0.307,0.342-0.675,0.614-1.032,0.876c-0.606,0.447-1.128,0.832-1.217,1.429c-0.152,1.018,0.089,1.554,0.919,2.043
			c0.258,0.151,0.343,0.485,0.19,0.744C221.826,120.385,221.645,120.48,221.46,120.48z"/>
		<path style="fill:#CC6148;" d="M239.501,126.867c-0.129,0-0.258-0.045-0.361-0.139c-0.222-0.2-0.243-0.536-0.047-0.761
			c0.06-0.066,1.474-1.608,4.758-1.32c0.298,0.027,0.519,0.292,0.492,0.591c-0.026,0.298-0.276,0.533-0.591,0.492
			c-2.704-0.247-3.801,0.91-3.846,0.96C239.797,126.808,239.648,126.867,239.501,126.867z"/>
		<path style="fill:#CC6148;" d="M247.741,127.934c-0.207,0.435-0.869,1.858-1.216,2.238c-2.771,2.956-6.846,2.097-6.846,2.097
			s-0.782,4.694-3.14,6.704c-3.292,2.804-7.4,3.282-7.4,3.282l-0.185,8.389l6.328,3.244l-8.556-2.147l-0.629-8.324l-6.945-1.901
			l-0.141-0.044l-1.032-0.369l-0.054-0.022c-1.304-0.554-3.532-1.695-6.172-3.912c-0.826-0.695-1.478-1.663-1.988-2.836
			c0,0,1.699,5.058,12.299,4.85c9.065-0.178,14.04-2.22,16.04-5.436c0.924-1.456,1.021-2.586,1.021-2.586
			S244.73,131.532,247.741,127.934z"/>
		<path id="hair_1" style="fill:#A54D3C;" d="M252.998,97.204c-1.023,1.782-2.541,2.574-3.762,2.607
			c-1.749,0.033-4.719-1.254-5.874-3.96c-0.891-2.145-1.32-2.244-2.805-1.782c-2.244,0.759-8.052,2.442-13.959,1.617
			c-1.353-0.165-2.343-0.594-3.102-1.089c-3.729,0.363-7.59,2.013-10.098,5.511c-0.462-1.188-0.891-2.607-1.122-3.96
			c-0.066-0.231-0.099-0.462-0.132-0.726c-0.132-1.287-0.066-2.508,0.396-3.465c1.815-3.597,6.303-2.376,6.303-2.376
			s0-0.033,0-0.099c0,0,0,0,0-0.033c-0.066-0.363-0.231-1.353-0.231-2.541c0-0.759,0.066-1.551,0.264-2.343l0.099,0.33
			c0-0.165-0.033-0.33-0.066-0.495c0.264-0.957,0.66-1.848,1.386-2.574c2.508-2.64,17.061-3.894,21.516,0
			c4.455,3.894,3.663,8.481,3.663,8.481s3.168-0.594,6.237,1.881C252.767,93.079,253.064,95.752,252.998,97.204z"/>
	</g>
	<g>
		<g>
			<path style="fill:#DD4231;" d="M200.302,176.799c-8.419,0-15.269-6.849-15.269-15.269c0-8.421,6.85-15.271,15.269-15.271
				c8.421,0,15.271,6.85,15.271,15.271C215.573,169.95,208.723,176.799,200.302,176.799z M200.302,148.735
				c-7.054,0-12.794,5.74-12.794,12.796c0,7.055,5.74,12.794,12.794,12.794c7.056,0,12.796-5.739,12.796-12.794
				C213.098,154.475,207.358,148.735,200.302,148.735z"/>
		</g>
		<g>
			<path style="fill:#DD4231;" d="M208.357,161.53c0,4.448-3.606,8.054-8.054,8.054c-4.448,0-8.054-3.606-8.054-8.054
				c0-4.448,3.606-8.054,8.054-8.054C204.751,153.476,208.357,157.082,208.357,161.53z"/>
			<path style="fill:#DD4231;" d="M200.302,171.234c-5.351,0-9.703-4.352-9.703-9.703c0-5.351,4.352-9.705,9.703-9.705
				c5.351,0,9.705,4.354,9.705,9.705C210.007,166.882,205.653,171.234,200.302,171.234z M200.302,155.126
				c-3.53,0-6.403,2.873-6.403,6.405c0,3.53,2.873,6.403,6.403,6.403c3.532,0,6.405-2.873,6.405-6.403
				C206.707,157.999,203.834,155.126,200.302,155.126z"/>
		</g>
		<g>
			<path style="fill:#DD4231;" d="M212.047,344.461c-8.419,0-15.269-6.85-15.269-15.269c0-8.421,6.85-15.27,15.269-15.27
				c8.421,0,15.271,6.85,15.271,15.27C227.318,337.612,220.468,344.461,212.047,344.461z M212.047,316.397
				c-7.054,0-12.794,5.739-12.794,12.795c0,7.054,5.739,12.794,12.794,12.794c7.056,0,12.796-5.74,12.796-12.794
				C224.843,322.136,219.103,316.397,212.047,316.397z"/>
		</g>
		<g>
			<path style="fill:#DD4231;" d="M220.102,329.192c0,4.448-3.606,8.054-8.054,8.054c-4.448,0-8.055-3.606-8.055-8.054
				c0-4.448,3.606-8.054,8.055-8.054C216.496,321.138,220.102,324.744,220.102,329.192z"/>
			<path style="fill:#DD4231;" d="M212.047,338.896c-5.351,0-9.703-4.352-9.703-9.704c0-5.351,4.352-9.705,9.703-9.705
				s9.705,4.354,9.705,9.705C221.752,334.544,217.398,338.896,212.047,338.896z M212.047,322.788c-3.53,0-6.403,2.873-6.403,6.405
				c0,3.531,2.873,6.404,6.403,6.404c3.532,0,6.405-2.873,6.405-6.404C218.452,325.66,215.579,322.788,212.047,322.788z"/>
		</g>
		<g>
			<path style="fill:#DD4231;" d="M242.54,242.366c-8.419,0-15.269-6.85-15.269-15.269c0-8.421,6.85-15.27,15.269-15.27
				c8.421,0,15.27,6.85,15.27,15.27C257.81,235.516,250.961,242.366,242.54,242.366z M242.54,214.302
				c-7.054,0-12.794,5.74-12.794,12.795c0,7.054,5.74,12.794,12.794,12.794c7.056,0,12.795-5.74,12.795-12.794
				C255.335,220.041,249.596,214.302,242.54,214.302z"/>
		</g>
		<g>
			<path style="fill:#DD4231;" d="M250.595,227.097c0,4.448-3.607,8.054-8.055,8.054c-4.448,0-8.054-3.606-8.054-8.054
				c0-4.448,3.606-8.054,8.054-8.054C246.989,219.042,250.595,222.649,250.595,227.097z"/>
			<path style="fill:#DD4231;" d="M242.54,236.801c-5.351,0-9.704-4.352-9.704-9.704c0-5.351,4.352-9.705,9.704-9.705
				c5.351,0,9.705,4.354,9.705,9.705C252.245,232.448,247.891,236.801,242.54,236.801z M242.54,220.692
				c-3.531,0-6.404,2.873-6.404,6.405c0,3.531,2.873,6.404,6.404,6.404c3.532,0,6.405-2.873,6.405-6.404
				C248.945,223.565,246.072,220.692,242.54,220.692z"/>
		</g>
	</g>
	<g id="bubbles_1_">
		<circle style="fill:#FCD9D9;" cx="74.065" cy="269.279" r="3.109"/>
		<path style="fill:#FCD9D9;" d="M62.805,278.052c0,0.763-0.618,1.382-1.382,1.382c-0.763,0-1.381-0.619-1.381-1.382
			c0-0.763,0.618-1.381,1.381-1.381C62.187,276.67,62.805,277.289,62.805,278.052z"/>
		<path style="fill:#FCD9D9;" d="M75.931,243.512c0,0.687-0.557,1.243-1.243,1.243c-0.687,0-1.243-0.557-1.243-1.243
			c0-0.687,0.557-1.243,1.243-1.243C75.374,242.268,75.931,242.825,75.931,243.512z"/>
		<path style="fill:#FCD9D9;" d="M92.54,161.464c0,1.878-1.522,3.4-3.4,3.4c-1.878,0-3.4-1.522-3.4-3.4s1.522-3.4,3.4-3.4
			C91.018,158.064,92.54,159.586,92.54,161.464z"/>
		<path style="fill:#FCD9D9;" d="M77.427,142.337c0,1.1-0.892,1.992-1.992,1.992c-1.1,0-1.992-0.892-1.992-1.992
			c0-1.1,0.892-1.992,1.992-1.992C76.535,140.345,77.427,141.237,77.427,142.337z"/>
		<path style="fill:#FCD9D9;" d="M295.747,92.201c0,1.229-0.996,2.226-2.225,2.226c-1.229,0-2.226-0.996-2.226-2.226
			c0-1.229,0.997-2.226,2.226-2.226C294.751,89.976,295.747,90.972,295.747,92.201z"/>
		<path style="fill:#FCD9D9;" d="M297.471,369.531c0,1.841-1.493,3.334-3.334,3.334c-1.841,0-3.334-1.493-3.334-3.334
			c0-1.841,1.492-3.334,3.334-3.334C295.978,366.197,297.471,367.69,297.471,369.531z"/>
		<path style="fill:#FCD9D9;" d="M309.1,356.289c0,1.198-0.971,2.169-2.169,2.169c-1.197,0-2.168-0.971-2.168-2.169
			c0-1.198,0.971-2.168,2.168-2.168C308.129,354.121,309.1,355.091,309.1,356.289z"/>
		<circle style="fill:#FCD9D9;" cx="387.07" cy="277.814" r="2.487"/>
		<path style="fill:#FCF9F9;" d="M382.139,243.943c0,1.007,0.816,1.823,1.823,1.823c1.007,0,1.823-0.816,1.823-1.823
			c0-1.007-0.816-1.823-1.823-1.823C382.955,242.12,382.139,242.936,382.139,243.943z"/>
		<path style="fill:#FCF9F9;" d="M273.246,135.779c0-1.633,1.324-2.958,2.958-2.958c1.633,0,2.958,1.324,2.958,2.958
			s-1.324,2.958-2.958,2.958C274.571,138.737,273.246,137.413,273.246,135.779z"/>
		<path style="fill:#FCF9F9;" d="M273.246,118.96c0,0.878-0.711,1.589-1.589,1.589c-0.877,0-1.589-0.711-1.589-1.589
			s0.711-1.589,1.589-1.589C272.535,117.371,273.246,118.082,273.246,118.96z"/>
		<circle style="fill:#FCF9F9;" cx="134.967" cy="170.512" r="2.541"/>
		<path style="fill:#FCF9F9;" d="M344.985,274.248c0,1.714,1.39,3.104,3.104,3.104c1.714,0,3.104-1.39,3.104-3.104
			c0-1.714-1.39-3.104-3.104-3.104C346.375,271.144,344.985,272.533,344.985,274.248z"/>
		<path style="fill:#FCF9F9;" d="M351.194,250.745c0,0.869,0.704,1.573,1.573,1.573c0.869,0,1.573-0.704,1.573-1.573
			c0-0.869-0.704-1.573-1.573-1.573C351.898,249.171,351.194,249.876,351.194,250.745z"/>
		<path style="fill:#FCF9F9;" d="M144.03,159.782c0,0.607-0.492,1.099-1.099,1.099c-0.607,0-1.099-0.492-1.099-1.099
			c0-0.607,0.492-1.099,1.099-1.099C143.538,158.682,144.03,159.174,144.03,159.782z"/>
		<path style="fill:#FCF9F9;" d="M161.957,210.4c0,0.839-0.68,1.52-1.52,1.52c-0.839,0-1.52-0.68-1.52-1.52
			c0-0.839,0.68-1.52,1.52-1.52C161.277,208.88,161.957,209.561,161.957,210.4z"/>
		<path style="fill:#FCD9D9;" d="M158.918,358.618c0,1.081-0.877,1.957-1.957,1.957c-1.081,0-1.958-0.876-1.958-1.957
			c0-1.081,0.876-1.957,1.958-1.957C158.041,356.661,158.918,357.537,158.918,358.618z"/>
	</g>
</g>
</svg>
