<svg class="svg-icon" style="width: 1em; height: 1em;vertical-align: middle;fill: currentColor;overflow: hidden;" viewBox="0 0 1024 1024" version="1.1" xmlns="http://www.w3.org/2000/svg"><path d="M676.6 171.7c-61.3 0-120.4 22-167 61.5-46.5-39.5-105.7-61.5-167-61.5-143.5 0-260.4 118.6-260.4 264.3 0 69.3 19.8 137.4 58.8 202.4 30.9 51.5 74 101.3 128.2 148.1 60.1 51.9 135.1 100.6 211.1 137.3 1.1 0.5 1.9 0.9 2.4 1.2 8.3 4.2 17.6 6.5 26.9 6.5s18.5-2.3 26.9-6.5c0.5-0.2 1.3-0.6 2.4-1.2 76-36.6 151-85.4 211.1-137.3 54.2-46.7 97.3-96.6 128.2-148.1 39-65 58.8-133.2 58.8-202.5 0-145.6-116.9-264.2-260.4-264.2z m182.3 400.6h-0.4v0.4c-26.1 0-61.1 0.7-61.1 0.7-6.4-0.4-12.4 1.3-18 5.2-5.5 3.9-9.4 7.7-11.7 11.4-1.8 3.7-5.1 10.8-9.6 21.4-4.7 10.5-8.8 21.4-12.4 32.4-1.8 5.5-4.8 9.2-9 10.9-4.1 1.9-8.4 2.7-12.8 2.4-4.3-0.2-8.5-1.4-12.4-3.7s-6.5-5.1-7.9-8.3c-1.3-3.2-3.7-8.8-6.8-16.9-3.2-8-6.4-16.2-9.6-24.5-4.2-9.6-8.3-19.9-12.4-31-12 38.2-22.8 73.3-32.5 105.5-4.1 13.8-8.3 27.3-12.4 40.7-16 51.6-20.6 89.8-50.3 91.1-36.5 0-42.9-59.4-44.9-79.4-1.8-18.4-3.8-38.9-5.8-61.4-2.1-22.5-4.2-45.5-6.5-69-5.1-54.7-11-115.9-17.9-183.4-12.9 37.7-24.4 71.5-34.5 101.3-4.1 12.9-8.4 25.5-12.8 38-4.3 12.4-8.3 23.7-11.8 33.8-3.4 10.1-6.3 18.6-8.6 25.5l-4.2 12.4c-2.3 5.9-5.4 11.4-9.4 16.5-3.9 5.1-10 7.3-18.3 6.9-8.3 0-14.5-2.8-18.6-8.7-4.2-5.8-7.3-12.3-9.7-19.6-1.4-3.7-3.9-10.8-7.6-21.4-3.7-10.6-7.6-21.4-11.8-32.4-5.1-12.9-10.3-27.1-15.9-42.7-3.3 4.2-6.7 8.3-10.4 12.4-3.2 3.7-6.7 7.7-10.3 12.1-3.7 4.3-7.3 8.6-11 12.7-7.3 8.7-14.3 14.8-20.7 17.9-6.4 3.2-14 4.3-22.8 3.4-4.6-0.4-10.7-0.6-18.3-0.3-7.6 0.3-15.3 0.3-23.1 0.3-8.8 0.5-53.3 0.8-63.9 0.8v-53.8h72.9c10.1 0 18.3-0.9 24.5-2.8 6.2-1.8 12.3-5.3 18.3-10.3l11-11c4.6-4.6 9.4-9.8 14.5-15.9 5.1-5.9 10.3-12.1 15.5-18.3 5.3-6.2 10.3-12.1 14.9-17.6 9.2-11.5 17.4-15.9 24.9-13.4 7.3 2.5 12.9 7.9 16.6 16.2l30.4 83.5c15.7-43.7 29.5-83.2 41.4-118.6 5.1-15.2 10.1-30.1 15.2-44.5-2.9 8.3 23.3-86.2 49-86.2 37.3 0 39 40 44.8 67.3 3.8 17.7 4.7 37.8 7.3 59.7 2.6 21.8 5.2 44 7.9 66.5 6 52.8 12.9 111.9 20.7 177.2 10.1-33.1 19.3-63.3 27.6-90.3 3.2-11.5 6.6-22.9 10-34.1 3.4-11.3 6.7-21.6 9.7-31s5.4-17.4 7.3-23.8c1.8-6.4 3.3-10.6 4.2-12.4 2.3-7.3 5.1-12.9 8.3-16.6s7.6-6.2 13.1-7.6c10.6-2.8 18.5-1.3 23.9 4.5 5.3 5.8 7.3 11.6 7.9 17.5 1.1 9.3 1.9 17.3 3.2 28.3 1.1 9.6 6.3 21.1 9.9 31 0.7 2 10.8 25.2 9.6 26.2 0.5-0.4 1.2-1.4 2.1-2.7 1.4-2.3 3.7-7.2 6.8-14.5 3.8-7.8 9.8-12.9 18.4-15.5 11.9-3.5 37.7-2.4 39.7-2.4h66.6v52z"  /></svg>